<?xml version="1.0" encoding="UTF-8"?>
<svg version="1.1" xmlns="http://www.w3.org/2000/svg" width="3194" height="2984">
<path d="M0 0 C0.33 469.26 0.66 938.52 1 1422 C9.89827288 1413.1856017 9.89827288 1413.1856017 18.18017578 1404.05126953 C21.77655126 1399.99750689 25.64893688 1396.20380544 29.48803711 1392.3815918 C30.93524385 1390.93974779 32.37702026 1389.49262884 33.81835938 1388.04492188 C38.4615554 1383.39839269 43.16308784 1378.87789946 48.15209961 1374.6027832 C51.29702452 1371.87502101 54.29141287 1368.98820319 57.3125 1366.125 C62.43022377 1361.3119328 67.6394174 1356.72087306 73.1328125 1352.3359375 C76.62158698 1349.49358445 79.99273203 1346.52994942 83.375 1343.5625 C89.44502603 1338.26672362 95.65679526 1333.24808695 102.10644531 1328.42089844 C104.26286728 1326.80274786 106.40865698 1325.17096757 108.5546875 1323.5390625 C142.91538067 1297.48759543 179.19397403 1274.70811853 217 1254 C217.82097168 1253.54818359 218.64194336 1253.09636719 219.48779297 1252.63085938 C297.94784158 1209.64538355 385.81232732 1183.30500417 570 1162 C570.97308105 1161.98356445 570.97308105 1161.98356445 571.96582031 1161.96679688 C655.88517709 1160.62028525 739.31768099 1171.62416109 880 1217 C880.62956604 1217.25031982 881.25913208 1217.50063965 881.90777588 1217.75854492 C923.68560465 1234.41983725 963.77874377 1254.42238 1001.98388672 1278.13867188 C1004.623141 1279.76742974 1007.27501543 1281.36934976 1009.94140625 1282.953125 C1029.12369941 1294.37140652 1047.16692692 1307.59851176 1065 1321 C1065.5995752 1321.45036621 1066.19915039 1321.90073242 1066.81689453 1322.36474609 C1083.64904363 1335.05584549 1100.00704617 1348.49176406 1115.53515625 1362.75 C1117.58115954 1364.61766703 1119.65017157 1366.44369597 1121.75 1368.25 C1132.92383359 1378.01874074 1143.49805252 1388.39619762 1154 1398.875 C1154.54220184 1399.41461365 1155.08440369 1399.95422729 1155.64303589 1400.51019287 C1161.09889583 1405.94550596 1166.4898929 1411.39358584 1171.49707031 1417.25195312 C1173.87357124 1420.01604453 1176.38162751 1422.65427297 1178.875 1425.3125 C1183.33826707 1430.10995628 1187.56974429 1435.03162373 1191.671875 1440.14453125 C1193.81402 1442.77189366 1196.01110745 1445.33375009 1198.23828125 1447.88842773 C1204.97906753 1455.63184065 1211.24705565 1463.67958026 1217.41064453 1471.88720703 C1218.93133815 1473.90872509 1220.46210146 1475.92215711 1221.99609375 1477.93359375 C1250.1742321 1515.00123602 1274.24273881 1554.7517774 1295.51953125 1596.12255859 C1296.47456031 1597.97875458 1297.43266828 1599.83337122 1298.39453125 1601.68603516 C1334.11940382 1670.6005498 1357.47942808 1746.865094 1380.203125 1933.16015625 C1380.21015039 1934.7492475 1380.21723717 1936.33833848 1380.22438049 1937.9274292 C1380.24375623 1942.97245701 1380.24881437 1948.01743872 1380.25 1953.0625 C1380.25044186 1953.92282711 1380.25088371 1954.78315422 1380.25133896 1955.66955185 C1380.25818704 1981.10595745 1380.06821924 2006.40689233 1377.25323486 2031.71673584 C1376.98772573 2034.11066956 1376.73338406 2036.50563541 1376.47998047 2038.90087891 C1372.68352403 2074.33375624 1366.46347675 2109.38552977 1358 2144 C1357.84527222 2144.63929443 1357.69054443 2145.27858887 1357.53112793 2145.93725586 C1345.6031183 2195.19295533 1328.50094619 2243.12794308 1307 2289 C1306.71598328 2289.60714844 1306.43196655 2290.21429687 1306.13934326 2290.83984375 C1298.32157082 2307.53755335 1290.08108717 2323.94841472 1281 2340 C1280.42668945 2341.02158203 1279.85337891 2342.04316406 1279.26269531 2343.09570312 C1270.94544754 2357.88887354 1262.1675322 2372.27603215 1252.74169922 2386.38818359 C1251.09888077 2388.85172043 1249.4707349 2391.32420929 1247.84765625 2393.80078125 C1230.42919008 2420.29962869 1210.96520114 2445.30198076 1190.36816406 2469.39355469 C1188.97483444 2471.02954842 1187.59220031 2472.67412368 1186.2109375 2474.3203125 C1180.87191114 2480.65574979 1175.38168825 2486.82186462 1169.69921875 2492.8515625 C1169.00932861 2493.58378021 1168.31943848 2494.31599792 1167.60864258 2495.07040405 C1160.43504565 2502.64877663 1153.09513753 2510.05662735 1145.70605469 2517.42431641 C1143.46951005 2519.65541572 1141.238477 2521.89192947 1139.0078125 2524.12890625 C1137.55761277 2525.57844632 1136.10710349 2527.02767679 1134.65625 2528.4765625 C1134.00402466 2529.13081207 1133.35179932 2529.78506165 1132.67980957 2530.45913696 C1128.82978247 2534.28985347 1124.86926225 2537.93871186 1120.75434875 2541.48376465 C1118.35000112 2543.56177614 1116.02164444 2545.71872971 1113.6875 2547.875 C1109.20337072 2551.96437787 1104.59732762 2555.84619021 1099.875 2559.65625 C1097.30624533 2561.75034348 1094.77927658 2563.88213341 1092.26196289 2566.03710938 C1085.91024502 2571.47088323 1079.41097995 2576.65590612 1072.73632812 2581.68896484 C1070.92899644 2583.05361208 1069.12848186 2584.42694872 1067.328125 2585.80078125 C1051.98443532 2597.46065931 1036.1620161 2608.5040247 1020 2619 C1019.30680664 2619.45020508 1018.61361328 2619.90041016 1017.89941406 2620.36425781 C979.94981815 2644.89614104 939.71433453 2666.56855622 898 2684 C896.87787109 2684.46970215 895.75574219 2684.9394043 894.59960938 2685.42333984 C814.92162575 2718.5341159 730.28802647 2738.76552604 638 2745 C637.34360535 2745.04130035 636.68721069 2745.08260071 636.01092529 2745.12515259 C620.46893247 2746.09644531 604.94367539 2746.20084331 589.375 2746.1875 C588.0698645 2746.18689575 586.764729 2746.1862915 585.42004395 2746.18566895 C565.19800955 2746.16029936 545.15079028 2745.78427415 525 2744 C524.26420715 2743.93683594 523.52841431 2743.87367188 522.77032471 2743.80859375 C441.77383427 2736.85526415 362.21371623 2718.35595532 228 2660 C226.9176709 2659.45746582 225.8353418 2658.91493164 224.72021484 2658.35595703 C185.41212815 2638.52898577 148.10551389 2614.52340699 113 2588 C112.4033252 2587.55108398 111.80665039 2587.10216797 111.19189453 2586.63964844 C94.65281729 2574.17194948 78.57902497 2560.96393374 63.25 2547.03515625 C61.25010625 2545.22622457 59.22730568 2543.45108199 57.1875 2541.6875 C46.44346778 2532.29728105 36.23024047 2522.39225096 26.15917969 2512.28955078 C24.10986489 2510.23482492 22.05518737 2508.18556897 20 2506.13671875 C18.66894975 2504.80500835 17.33820939 2503.47298812 16.0078125 2502.140625 C15.40663605 2501.54147278 14.80545959 2500.94232056 14.18606567 2500.32501221 C10.48784687 2496.60663032 6.9798206 2492.76625091 3.5557251 2488.7938385 C1.3061028 2486.19989751 -1.03470575 2483.69997807 -3.375 2481.1875 C-7.6687538 2476.53961458 -11.7353184 2471.75583652 -15.703125 2466.82421875 C-17.72569323 2464.33728537 -19.79247603 2461.89633224 -21.88305664 2459.46655273 C-28.40216014 2451.87626238 -34.45955621 2443.9683819 -40.48925781 2435.98681641 C-41.83038844 2434.22306058 -43.18610115 2432.47294725 -44.5546875 2430.73046875 C-55.78741219 2416.3857269 -66.07901804 2401.27662419 -76 2386 C-76.67530762 2384.96020996 -76.67530762 2384.96020996 -77.36425781 2383.89941406 C-121.83493901 2315.10549531 -155.01514717 2239.9028838 -198 2042 C-362.34 2042 -526.68 2042 -696 2042 C-696 1977.32 -696 1912.64 -696 1846 C-533.31 1846 -370.62 1846 -203 1846 C-203.33 1332.19 -203.66 818.38 -204 289 C-340.29 425.29 -476.58 561.58 -617 702 C-621.61721721 700.8456957 -623.61853771 698.79455205 -626.83392334 695.52684021 C-627.41312192 694.9502049 -627.9923205 694.37356959 -628.58907056 693.77946049 C-630.5324054 691.8410759 -632.46480845 689.89214649 -634.39746094 687.94311523 C-635.78655154 686.55317863 -637.17630265 685.16390186 -638.56666565 683.77523804 C-642.34371712 679.99904899 -646.11143324 676.21366688 -649.87757778 672.42660403 C-653.81336109 668.47209523 -657.75761444 664.52605339 -661.70098877 660.57911682 C-669.16902408 653.10174891 -676.62937772 645.61676499 -684.08702207 638.12903506 C-692.57681106 629.60573988 -701.07509752 621.09093909 -709.57411909 612.57685173 C-727.05890448 595.0606898 -744.5329569 577.53385323 -762 560 C-760.5696575 556.782846 -758.82025542 554.50498459 -756.42125094 551.93811774 C-755.67204632 551.13214861 -754.92284171 550.32617947 -754.15093392 549.49578702 C-753.32248477 548.61427901 -752.49403562 547.732771 -751.64048195 546.82455063 C-750.76055618 545.88119948 -749.8806304 544.93784834 -748.97404021 543.96591079 C-746.51875271 541.33451328 -744.05726166 538.70899298 -741.59434615 536.08473606 C-740.01005274 534.39586003 -738.42732289 532.70553322 -736.84511046 531.0147076 C-729.19595607 522.84056336 -721.53300498 514.67945133 -713.8655279 506.52249557 C-711.96912211 504.50463412 -710.07328709 502.48623806 -708.17764163 500.46766233 C-675.47286546 465.64325918 -642.59142787 430.99395485 -609.42929077 396.60455322 C-608.67378926 395.82103698 -607.91828774 395.03752074 -607.13989224 394.23026158 C-590.70378395 377.18652924 -574.24360197 360.1662433 -557.75655011 343.17178808 C-549.668919 334.83509405 -541.58629781 326.49355223 -533.50634766 318.14941406 C-532.70245574 317.31941307 -531.89856382 316.48941208 -531.07031154 315.63425954 C-505.24566992 288.96603986 -479.77891959 261.9867308 -454.48713717 234.81343798 C-428.37158 206.7588686 -401.91374987 179.07210454 -375.01120214 151.77036015 C-371.16753334 147.8693531 -367.32773289 143.96455946 -363.49027634 140.05744171 C-362.73529196 139.28899605 -361.98030759 138.52055038 -361.2024449 137.72881848 C-350.75850241 127.08151083 -340.58046042 116.23204045 -330.58041212 105.16742743 C-326.37253686 100.52534375 -322.12710978 95.91744528 -317.88469926 91.30693279 C-314.64309301 87.77499949 -311.42926184 84.22696541 -308.29007415 80.60350516 C-214.89452058 -26.5332045 -150.90973733 0 0 0 Z M-2 1428 C-8.77530346 1434.95006327 -14.9122466 1442.45079865 -21 1450 C-21.97407866 1451.18326549 -22.94941 1452.36550053 -23.92578125 1453.546875 C-41.12002668 1474.41321134 -57.29894544 1496.30244695 -72 1519 C-72.52174805 1519.8038916 -73.04349609 1520.6077832 -73.58105469 1521.43603516 C-86.79206047 1541.84715344 -99.06103163 1562.68370154 -110.47851562 1584.14941406 C-111.8835184 1586.78176521 -113.30615117 1589.40363715 -114.734375 1592.0234375 C-153.49050457 1663.73871746 -177.6464306 1743.64883909 -191.59436035 1823.67877197 C-191.9769281 1825.86797363 -192.36592485 1828.05592752 -192.75683594 1830.24365234 C-196.91687165 1853.67138993 -199.1840689 1877.28801324 -201 1901 C-201.05514771 1901.70008179 -201.11029541 1902.40016357 -201.16711426 1903.12145996 C-202.39166456 1919.21319505 -202.24129114 1935.37163195 -202.25 1951.5 C-202.25088371 1952.24845184 -202.25176743 1952.99690369 -202.25267792 1953.76803589 C-202.27285934 1973.04960738 -202.09321592 1992.26286068 -200.625 2011.5 C-200.53031433 2012.7516394 -200.53031433 2012.7516394 -200.43371582 2014.02856445 C-199.72064929 2023.13809221 -198.50771351 2031.95371894 -197 2041 C17.5 2041 232 2041 453 2041 C453 1976.98 453 1912.96 453 1847 C303.18 1847 153.36 1847 -1 1847 C-1 1708.73 -1 1570.46 -1 1428 C-1.33 1428 -1.66 1428 -2 1428 Z " fill="#7B7DEC" transform="translate(1814,238)"/>
<path d="M0 0 C1.17853546 0.00060425 2.35707092 0.0012085 3.57131958 0.00183105 C23.73470961 0.02972074 43.77967304 0.50870359 63.875 2.1875 C64.63502319 2.25066406 65.39504639 2.31382813 66.17810059 2.37890625 C144.81864443 9.00639747 222.15296512 26.85907061 399.875 107.1875 C400.77057617 107.71311523 401.66615234 108.23873047 402.58886719 108.78027344 C432.32684792 126.29745583 460.61007549 146.05466209 487.875 167.1875 C488.49358887 167.66429199 489.11217773 168.14108398 489.74951172 168.63232422 C498.09916837 175.07091236 506.17330331 181.7718674 514.13378906 188.68457031 C515.84753755 190.16379573 517.57343278 191.6272591 519.3046875 193.0859375 C530.7294929 202.73200155 541.71095308 212.86796895 552.19140625 223.53515625 C554.95413216 226.24660187 557.90214598 228.71012165 560.875 231.1875 C559.26319302 235.21376565 556.42217453 237.91403304 553.39547729 240.90753174 C552.83023822 241.47447966 552.26499914 242.04142759 551.68263161 242.62555575 C549.78646962 244.52501328 547.88324535 246.41723195 545.97998047 248.30957031 C544.61966731 249.66931937 543.25979431 251.02950889 541.90032959 252.3901062 C538.20668415 256.08432621 534.50689822 259.77234098 530.80599737 263.4592905 C526.94002353 267.3127743 523.07970077 271.17191061 519.21878052 275.03045654 C511.90590769 282.33710954 504.58795087 289.63864869 497.2681638 296.93837428 C488.93543847 305.24875631 480.60838149 313.56480811 472.28180099 321.88134623 C455.1525102 338.9897236 438.01609649 356.09095151 420.875 373.1875 C419.60050079 372.24702693 418.32812707 371.3036731 417.05664062 370.35913086 C415.99346619 369.57160683 415.99346619 369.57160683 414.90881348 368.76817322 C412.16610464 366.63654883 409.78354557 364.24922877 407.375 361.75 C403.04704314 357.32858597 398.58885712 353.19183191 393.875 349.1875 C392.88242188 348.31738281 391.88984375 347.44726562 390.8671875 346.55078125 C382.60060072 339.32655563 374.03071787 332.58699041 365.25366211 325.99584961 C363.49597246 324.65958694 361.75128076 323.3061873 360.01391602 321.94360352 C351.5875195 315.33857329 342.86167479 309.2858941 333.9375 303.375 C333.21611847 302.89572052 332.49473694 302.41644104 331.75149536 301.92263794 C319.69536648 293.92238537 307.50537659 286.25583297 294.875 279.1875 C293.95589844 278.66961914 293.03679687 278.15173828 292.08984375 277.61816406 C221.35824083 237.94591467 143.34912668 213.26906522 62.6875 204.875 C61.90651947 204.79368835 61.12553894 204.71237671 60.32089233 204.62860107 C55.17608288 204.10104351 50.02823792 203.62475044 44.875 203.1875 C43.65047119 203.08219971 42.42594238 202.97689941 41.16430664 202.8684082 C28.0240613 201.8938696 14.85662744 201.98731476 1.6875 202 C-0.19072952 202.00140488 -0.19072952 202.00140488 -2.10690308 202.00283813 C-20.19234663 202.03219363 -38.13143568 202.19466438 -56.125 204.1875 C-56.82383301 204.26291016 -57.52266602 204.33832031 -58.24267578 204.41601562 C-158.51448932 215.26090136 -253.347556 249.74693761 -379.125 338.1875 C-379.70475586 338.66815918 -380.28451172 339.14881836 -380.88183594 339.64404297 C-388.26128142 345.76961705 -395.40241412 352.10614751 -402.42797852 358.6340332 C-403.7155202 359.81265898 -405.01507254 360.97818061 -406.32006836 362.13745117 C-412.37108554 367.51593366 -418.18267416 373.08912401 -423.89428711 378.82641602 C-425.31837492 380.25589717 -426.74778044 381.67990511 -428.17773438 383.10351562 C-433.37105307 388.30407239 -438.34847526 393.60403754 -443.125 399.1875 C-444.57945517 400.79518373 -446.03720895 402.39989715 -447.5 404 C-452.23071502 409.24925883 -456.69583694 414.68308996 -461.125 420.1875 C-462.03874442 421.30885302 -462.95282139 422.42993511 -463.8671875 423.55078125 C-507.04180037 476.70384965 -540.66426775 537.53417726 -563.125 602.1875 C-563.53314941 603.35732422 -563.94129883 604.52714844 -564.36181641 605.73242188 C-581.53217232 655.49496722 -591.7263434 707.67038401 -595.125 760.1875 C-595.18284668 761.05616699 -595.24069336 761.92483398 -595.30029297 762.81982422 C-600.34943411 842.06287316 -588.65367763 922.11604396 -463.125 1174.1875 C-461.62394691 1176.04081423 -460.123966 1177.89499732 -458.625 1179.75 C-454.94937414 1184.24527761 -451.13255389 1188.58283107 -447.22265625 1192.875 C-445.42992554 1194.85134372 -443.67704773 1196.8520673 -441.9375 1198.875 C-430.17804322 1212.3414747 -417.8302396 1225.86091658 -404.16796875 1237.42578125 C-402.01989159 1239.27813842 -399.93911464 1241.19571284 -397.86083984 1243.12573242 C-392.76251702 1247.85667374 -387.56765778 1252.39758773 -382.14453125 1256.7578125 C-379.9183284 1258.54914261 -377.71011884 1260.35488303 -375.51171875 1262.1796875 C-365.69199467 1270.30167229 -355.5598295 1277.87523078 -345.125 1285.1875 C-344.3525293 1285.72906738 -343.58005859 1286.27063477 -342.78417969 1286.82861328 C-316.72448611 1305.02500239 -289.48761913 1320.85178976 -261.125 1335.1875 C-260.35365723 1335.57856934 -259.58231445 1335.96963867 -258.78759766 1336.37255859 C-185.29348451 1373.29045603 -100.00464498 1393.88651404 -0.4375 1395.375 C0.59168549 1395.37439575 1.62087097 1395.3737915 2.6812439 1395.37316895 C20.15759376 1395.34546651 37.46676098 1394.84488473 54.875 1393.1875 C55.8494104 1393.09628876 55.8494104 1393.09628876 56.84350586 1393.00323486 C124.25055895 1386.64788748 190.23477565 1368.88360938 251.59228516 1340.25097656 C253.90402251 1339.17397892 256.22300587 1338.11383253 258.54296875 1337.0546875 C309.87180449 1313.41984689 357.66623263 1280.43221355 399.3984375 1242.41796875 C400.8016743 1241.15417031 402.21186986 1239.89773798 403.64355469 1238.66625977 C408.78290429 1234.24028822 413.60892649 1229.57344291 418.375 1224.75 C419.10203125 1224.01845703 419.8290625 1223.28691406 420.578125 1222.53320312 C422.34609623 1220.75360051 424.11120179 1218.97123554 425.875 1217.1875 C432.83008028 1222.88033987 439.08231164 1229.26135654 445.41967773 1235.61865234 C446.68156299 1236.88082001 447.94366916 1238.14276686 449.20597839 1239.4045105 C452.6167883 1242.81503452 456.02451493 1246.2286241 459.43168139 1249.64278746 C462.99864211 1253.2160165 466.56845133 1256.78639748 470.13795471 1260.35708618 C476.89001362 1267.11224816 483.63952022 1273.86995432 490.38810545 1280.62858641 C498.07416942 1288.32584335 505.76308676 1296.02024732 513.45224082 1303.71441722 C529.26299614 1319.53561373 545.07017866 1335.36037582 560.875 1351.1875 C559.91779019 1352.30987693 558.9597808 1353.43157198 558.00143433 1354.55297852 C557.4680287 1355.17769547 556.93462307 1355.80241241 556.38505363 1356.44606018 C554.68054149 1358.41175548 552.9081865 1360.28360035 551.0703125 1362.125 C550.40386719 1362.79273438 549.73742188 1363.46046875 549.05078125 1364.1484375 C548.37402344 1364.82132813 547.69726562 1365.49421875 547 1366.1875 C546.33097656 1366.86039063 545.66195313 1367.53328125 544.97265625 1368.2265625 C541.01029115 1372.18129298 536.93986152 1375.9499022 532.70117188 1379.60644531 C530.27419252 1381.70766433 527.92038758 1383.88429593 525.5625 1386.0625 C521.07837072 1390.15187787 516.47232762 1394.03369021 511.75 1397.84375 C509.18146808 1399.93766189 506.65468393 1402.06920686 504.13769531 1404.22412109 C491.25647432 1415.24267298 477.57663336 1425.22137959 463.875 1435.1875 C463.1845459 1435.69007324 462.4940918 1436.19264648 461.78271484 1436.71044922 C442.19662567 1450.90375506 421.7973967 1464.05657252 400.875 1476.1875 C399.56063965 1476.95175293 399.56063965 1476.95175293 398.21972656 1477.73144531 C324.10038008 1520.66208851 243.2233688 1551.9271376 45.875 1583.1875 C44.93414551 1583.24534668 43.99329102 1583.30319336 43.02392578 1583.36279297 C-43.79023325 1588.57876223 -131.98085143 1578.24967926 -224.125 1552.1875 C-226.00687012 1551.64706055 -226.00687012 1551.64706055 -227.92675781 1551.09570312 C-258.33765725 1542.2659367 -288.21187764 1531.08798917 -317.125 1518.1875 C-318.14819336 1517.7322998 -319.17138672 1517.27709961 -320.22558594 1516.80810547 C-346.8198319 1504.90806908 -373.02706718 1492.00199978 -398.125 1477.1875 C-399.02347656 1476.66043457 -399.92195313 1476.13336914 -400.84765625 1475.59033203 C-413.03910123 1468.4085651 -424.91475698 1460.78067221 -436.6875 1452.9375 C-437.30658234 1452.52547333 -437.92566467 1452.11344666 -438.56350708 1451.68893433 C-450.30754884 1443.8580743 -461.85298125 1435.74890263 -473.125 1427.25 C-474.12188843 1426.49952393 -474.12188843 1426.49952393 -475.13891602 1425.73388672 C-490.5301644 1414.10852366 -505.78240762 1402.15466445 -520.01171875 1389.12109375 C-521.98169206 1387.31862279 -523.98122056 1385.55991601 -526 1383.8125 C-531.46895966 1379.04077822 -536.80058794 1374.11910326 -542.125 1369.1875 C-542.75535156 1368.60371582 -543.38570312 1368.01993164 -544.03515625 1367.41845703 C-566.60774365 1346.47476231 -566.60774365 1346.47476231 -575.484375 1336.046875 C-577.28647789 1334.00449172 -579.18438947 1332.09848289 -581.125 1330.1875 C-585.0049727 1326.35195447 -588.58357014 1322.33505921 -592.125 1318.1875 C-593.03094952 1317.13385615 -593.93722583 1316.08049323 -594.84375 1315.02734375 C-597.43457591 1312.01512101 -600.01636705 1308.99527905 -602.59619141 1305.97363281 C-604.02127954 1304.30867836 -605.45303478 1302.64973918 -606.88671875 1300.9921875 C-613.74447849 1293.02644362 -620.13850404 1284.74978596 -626.47216797 1276.36376953 C-628.08424864 1274.24115696 -629.7124463 1272.13217286 -631.34765625 1270.02734375 C-657.07802977 1236.85488227 -679.07033275 1201.02521679 -699.125 1164.1875 C-699.66334473 1163.19878906 -700.20168945 1162.21007813 -700.75634766 1161.19140625 C-741.67921819 1085.48844794 -768.74102745 1001.36498612 -789.125 728.1875 C-789.06183594 727.44119324 -788.99867188 726.69488647 -788.93359375 725.92596436 C-781.54237417 639.09045664 -760.26828705 554.60190865 -690.65869141 404.82421875 C-689.10672019 402.15607339 -687.58619941 399.4722358 -686.07421875 396.78125 C-668.17424625 364.96454065 -647.43341186 335.05062739 -625.125 306.1875 C-624.59455078 305.49962402 -624.06410156 304.81174805 -623.51757812 304.10302734 C-617.39034616 296.17139473 -611.06149477 288.44026508 -604.53417969 280.83496094 C-603.10097461 279.1594121 -601.67850262 277.47523026 -600.2578125 275.7890625 C-593.87241546 268.23609871 -587.25445963 260.94471131 -580.46875 253.75 C-577.62007087 250.72809039 -574.83685992 247.65292624 -572.0625 244.5625 C-566.68102285 238.67500336 -561.06964194 233.02192831 -555.4375 227.375 C-554.54603271 226.47894043 -553.65456543 225.58288086 -552.73608398 224.65966797 C-548.28228053 220.21622894 -543.77287844 215.9144156 -538.99926758 211.81665039 C-535.8478467 209.07737313 -532.84266101 206.1842818 -529.8125 203.3125 C-524.66785081 198.47445176 -519.4323618 193.85331752 -513.91015625 189.4453125 C-511.30380569 187.33245047 -508.76995685 185.15910621 -506.24194336 182.9543457 C-498.56235904 176.26713373 -490.5859036 170.0454847 -482.44482422 163.93212891 C-480.01080886 162.1016223 -477.5851717 160.26037812 -475.16015625 158.41796875 C-465.60064481 151.17510771 -455.94844182 144.12848352 -445.99121094 137.44189453 C-444.16892713 136.21702611 -442.35356939 134.98244406 -440.5390625 133.74609375 C-369.74808678 85.75139435 -290.32800528 49.39952652 0 0 Z " fill="#7B7DEC" transform="translate(791.125,-0.1875)"/>
<path d="M0 0 C0.90621094 0.72445312 1.81242187 1.44890625 2.74609375 2.1953125 C13.22265953 10.67996229 23.66461318 19.25504008 33 29 C27.71745279 35.406693 21.90199557 41.23530806 16.02822876 47.09202576 C14.909141 48.21155004 13.79027322 49.33129424 12.67160547 50.45123821 C9.60897747 53.51609509 6.54325224 56.57783715 3.47699904 59.63906658 C0.16646604 62.94527215 -3.14116728 66.25437645 -6.44915771 69.56312561 C-12.17689797 75.29138965 -17.90646306 81.01782315 -23.63727951 86.74300957 C-31.92302731 95.02062265 -40.20600514 103.30100295 -48.48831435 111.58205641 C-61.92661429 125.01816894 -75.36714486 138.45204782 -88.80908203 151.88452148 C-101.86494255 164.93119987 -114.91975005 177.97893045 -127.97314453 191.02807617 C-129.18051323 192.23505078 -129.18051323 192.23505078 -130.41227321 193.46640872 C-134.45036585 197.50319631 -138.48843782 201.54000457 -142.52649951 205.57682312 C-176.0144616 239.05442225 -209.5060455 272.52839627 -243 306 C-241.44967706 309.69631647 -239.20225323 312.04636361 -236.38104057 314.86505508 C-235.90598825 315.34241509 -235.43093593 315.8197751 -234.94148809 316.31160057 C-233.34224483 317.91615394 -231.73594487 319.51345116 -230.12960815 321.11090088 C-228.97251058 322.26887032 -227.81585247 323.42727904 -226.65959752 324.58608985 C-223.47616302 327.77400574 -220.28651008 330.95563621 -217.09583163 334.13629961 C-213.65800406 337.56550641 -210.22594157 341.00047436 -206.79318237 344.43475342 C-200.84328165 350.38570386 -194.88972416 356.33297564 -188.93368149 362.27777863 C-180.32220358 370.87301631 -171.71624045 379.47375817 -163.11162199 388.07586214 C-149.15172776 402.03137694 -135.18737118 415.98241771 -121.22021484 429.93066406 C-107.65081759 443.48170892 -94.0835183 457.03484857 -80.51904297 470.59082031 C-79.68320965 471.42612818 -78.84737634 472.26143605 -77.98621474 473.12205628 C-73.79318169 477.3124793 -69.60018992 481.50294363 -65.40721869 485.69342852 C-30.61121286 520.46869415 4.19203266 555.23670741 39 590 C37.6647512 592.76587885 36.42812818 594.82092726 34.2421875 596.98828125 C33.69820312 597.53033203 33.15421875 598.07238281 32.59375 598.63085938 C32.0265625 599.18580078 31.459375 599.74074219 30.875 600.3125 C30.33101562 600.85583984 29.78703125 601.39917969 29.2265625 601.95898438 C14.52072082 616.51020856 -2.05725599 629.19142084 -19 641 C-19.63083496 641.4429541 -20.26166992 641.8859082 -20.91162109 642.34228516 C-31.83796154 649.97752386 -43.33538954 656.56537133 -55 663 C-55.84836426 663.47083008 -56.69672852 663.94166016 -57.57080078 664.42675781 C-114.39663451 695.76606785 -179.633581 711.28148959 -244.375 711.1875 C-245.15480225 711.18689575 -245.93460449 711.1862915 -246.73803711 711.18566895 C-310.32658195 711.0530985 -371.36186953 695.56778977 -428 667 C-428.79970215 666.60071289 -429.5994043 666.20142578 -430.42333984 665.79003906 C-455.41465077 653.25361031 -478.69149258 637.04329135 -500 619 C-501.01312256 618.15606689 -502.02624512 617.31213379 -503.07006836 616.44262695 C-511.42080451 609.4382937 -519.27269781 602.04067634 -526.9519043 594.30883789 C-528.82183141 592.42811472 -530.70232638 590.55843181 -532.58398438 588.68945312 C-539.5152016 581.76625913 -545.95479689 574.71955124 -552 567 C-553.02430689 565.74491125 -554.05131341 564.49201673 -555.08203125 563.2421875 C-620.19674382 483.26939674 -649.31053532 381.12783246 -641 271 C-636.11701127 225.1975657 -623.34229636 180.32726586 -603 139 C-602.50129395 137.98341309 -602.00258789 136.96682617 -601.48876953 135.91943359 C-590.98079118 114.68794563 -578.99623178 94.38655254 -564.35253906 75.73339844 C-563.04529938 74.05805516 -561.76474584 72.3658448 -560.4921875 70.6640625 C-527.41858999 26.58802574 -484.5725985 -9.1622064 -436.40478516 -35.67431641 C-434.22367301 -36.87669599 -432.05461235 -38.09824121 -429.88671875 -39.32421875 C-387.26634102 -63.06027948 -339.06427084 -75.69050527 -291 -82 C-290.00000977 -82.13277344 -289.00001953 -82.26554687 -287.96972656 -82.40234375 C-186.84046881 -95.07464778 -79.28622673 -63.38629701 0 0 Z " fill="#7B7DEC" transform="translate(1037,485)"/>
</svg>
